<mxfile host="65bd71144e">
    <diagram name="Seite-1" id="J2ipe53ZA7sRjb8-B77w">
        <mxGraphModel dx="1733" dy="811" grid="1" gridSize="10" guides="1" tooltips="1" connect="1" arrows="1" fold="1" page="1" pageScale="1" pageWidth="827" pageHeight="1169" math="0" shadow="0">
            <root>
                <mxCell id="0"/>
                <mxCell id="1" parent="0"/>
                <mxCell id="2" value="" style="rounded=0;whiteSpace=wrap;html=1;movable=1;resizable=1;rotatable=1;deletable=1;editable=1;locked=0;connectable=1;" vertex="1" parent="1">
                    <mxGeometry x="40" y="90" width="860" height="950" as="geometry"/>
                </mxCell>
                <mxCell id="CRWZv03vXLtkCw0N5HkK-53" value="" style="whiteSpace=wrap;html=1;movable=1;resizable=1;rotatable=1;deletable=1;editable=1;locked=0;connectable=1;" parent="1" vertex="1">
                    <mxGeometry x="270" y="160" width="620" height="870" as="geometry"/>
                </mxCell>
                <mxCell id="GLKqkrCOLmCW1IYTedix-1" value="&lt;div align=&quot;left&quot;&gt;BillCollector Ecosystem&lt;/div&gt;" style="text;strokeColor=none;fillColor=none;html=1;fontSize=24;fontStyle=1;verticalAlign=middle;align=left;movable=1;resizable=1;rotatable=1;deletable=1;editable=1;locked=0;connectable=1;" parent="1" vertex="1">
                    <mxGeometry x="70" y="100" width="300" height="40" as="geometry"/>
                </mxCell>
                <mxCell id="GLKqkrCOLmCW1IYTedix-2" value="Vaultwarden" style="swimlane;startSize=20;movable=1;resizable=1;rotatable=1;deletable=1;editable=1;locked=0;connectable=1;" parent="1" vertex="1" collapsed="1">
                    <mxGeometry x="449" y="299" width="160" height="30" as="geometry">
                        <mxRectangle x="80" y="120" width="200" height="120" as="alternateBounds"/>
                    </mxGeometry>
                </mxCell>
                <mxCell id="GLKqkrCOLmCW1IYTedix-4" value="Bitwarden API" style="swimlane;startSize=20;movable=1;resizable=1;rotatable=1;deletable=1;editable=1;locked=0;connectable=1;" parent="1" vertex="1" collapsed="1">
                    <mxGeometry x="449" y="398.5" width="160" height="30" as="geometry">
                        <mxRectangle x="30" y="130" width="200" height="120" as="alternateBounds"/>
                    </mxGeometry>
                </mxCell>
                <mxCell id="GLKqkrCOLmCW1IYTedix-7" value="&lt;div&gt;&lt;br&gt;&lt;/div&gt;&lt;div&gt;&lt;br&gt;&lt;/div&gt;&lt;div&gt;&lt;br&gt;&lt;/div&gt;&lt;div&gt;&lt;br&gt;&lt;/div&gt;&lt;div&gt;&lt;br&gt;&lt;/div&gt;&lt;div&gt;&lt;br&gt;&lt;/div&gt;&lt;div align=&quot;center&quot;&gt;Login Data&lt;/div&gt;&lt;div align=&quot;center&quot;&gt;Management&lt;/div&gt;" style="shape=actor;whiteSpace=wrap;html=1;movable=1;resizable=1;rotatable=1;deletable=1;editable=1;locked=0;connectable=1;" parent="1" vertex="1">
                    <mxGeometry x="691" y="280" width="46" height="60" as="geometry"/>
                </mxCell>
                <mxCell id="GLKqkrCOLmCW1IYTedix-8" value="" style="endArrow=classic;startArrow=classic;html=1;rounded=0;entryX=0.05;entryY=0.575;entryDx=0;entryDy=0;entryPerimeter=0;exitX=1;exitY=0.5;exitDx=0;exitDy=0;movable=1;resizable=1;rotatable=1;deletable=1;editable=1;locked=0;connectable=1;" parent="1" source="GLKqkrCOLmCW1IYTedix-2" target="GLKqkrCOLmCW1IYTedix-7" edge="1">
                    <mxGeometry width="50" height="50" relative="1" as="geometry">
                        <mxPoint x="579" y="549" as="sourcePoint"/>
                        <mxPoint x="629" y="499" as="targetPoint"/>
                    </mxGeometry>
                </mxCell>
                <mxCell id="GLKqkrCOLmCW1IYTedix-13" value="nginx proxy manager" style="swimlane;startSize=20;movable=1;resizable=1;rotatable=1;deletable=1;editable=1;locked=0;connectable=1;" parent="1" vertex="1" collapsed="1">
                    <mxGeometry x="449" y="199.5" width="160" height="30" as="geometry">
                        <mxRectangle x="40" y="280" width="200" height="120" as="alternateBounds"/>
                    </mxGeometry>
                </mxCell>
                <mxCell id="CRWZv03vXLtkCw0N5HkK-1" value="BillCollector" style="swimlane;startSize=20;movable=1;resizable=1;rotatable=1;deletable=1;editable=1;locked=0;connectable=1;" parent="1" vertex="1">
                    <mxGeometry x="309" y="529" width="440" height="371" as="geometry">
                        <mxRectangle x="309" y="529" width="160" height="30" as="alternateBounds"/>
                    </mxGeometry>
                </mxCell>
                <mxCell id="CRWZv03vXLtkCw0N5HkK-12" value="List of Services" style="image;aspect=fixed;html=1;points=[];align=center;fontSize=12;image=img/lib/azure2/general/File.svg;movable=1;resizable=1;rotatable=1;deletable=1;editable=1;locked=0;connectable=1;" parent="CRWZv03vXLtkCw0N5HkK-1" vertex="1">
                    <mxGeometry x="361" y="51" width="56.00000000000001" height="69" as="geometry"/>
                </mxCell>
                <mxCell id="CRWZv03vXLtkCw0N5HkK-18" value="" style="shape=image;verticalLabelPosition=bottom;labelBackgroundColor=default;verticalAlign=top;aspect=fixed;imageAspect=0;image=data:image/png,iVBORw0KGgoAAAANSUhEUgAAAEYAAABJCAYAAACAeFBRAAAKCklEQVR4Xu1bCXRUVRK9SSchSYdOTCCQhEBnE0EcQEEREdkGYVBGtlFANhc4OLI4IAMIKDAsA8gmqwQGhtU4hpMBUQkHFAQVlGUcxwUDSSD7Rva1O/PqM2l7+cv7vxNPT5I6J6fPya+q9+r+eu/Vq6rvdsW3Sy2aKIVsXIyASSNErXdrqsC0uC8SEZ8eglsLr2Zg6hAgMCIvvA+vyHDJtdIkPSZkwyIETB4pu4E0OWBaDuuPdgfeVtxVmxQwHiHBiLoYD3c/32ZgLAjodDCe3AufB+9XBIUYmozHBL81E0GzJnOB0mSA8e37MDok7OAGpUkA4x4UgJiv2L7CftVQo19K5CnkMTxkLinDnUMJCJw6tnHvMUGzpyD4zRk8mAAmE1JGvIKyc5fQqeBy4wWGTh86hcBOIx5KmzwPRQmnBNZGCwzFKRSvUNzCQ9lL30Hexr9ZWBstMBTZUoTLQ4X7E5A+c6kNa6MEJmDKaISsX8iDCUo+Potb414Dam0zL40OGKVUgjVa5Ze/Q8qQKaitrnEAsVEBw5NKqEOg6ucUJA+aCFNhsahnuSQwbdfMg9+gPrg58HmYCoq4lgQxhWxagoCJzyjym7LzcGPgBNTczpTkdTlgDMMHImzfWmHCFf/6ESlDX4C5rFzRWN5UAgVwyYMnofL7JFmdLgWMZ0Q7RJ2Pg5uPt2XSFGylPDMdMJslDfEMDxGycYqpBBbAJT/1Msq/vKoItMsAQ2BEsvyr171Gh0kXxp1A+rRF4saw4C3izEF4P3CvorHWAZwSs8sAQ8uHlpEU5W7Yg5xlWxweBy+dhaCZk5TsRPbijcjb8ndFvjoGlwDG5+GuMH7yS9QpNfvMuatRsDvO8lg/4FG0/2CrorEFu44gc94aRT5rBpcABm5uCNu9CoYRg+Unz4IwCsYoKNMFByGa9hWFVIIQwI2drQoUYnYNYP437XYH16Pl7/opGpH+0gJWJBsJ38d7yvLSJpvMTjUt5FLA0C24/QdboH/iES222MhQAHez/3jQ8ayFXAsYZgFFrx3it8Gn94Na7BFkTFk5SHpiPPvN1azD5YAhS+joNv5zJ7x7PKDaMPIQ8hTyGGfIJYEhg9z1PuhwPBbe3Tpx20eXwZThU7kCOCWlLguMAI7BD8YTu9Hi/hglO4TndPrQKVQf5NLAkIG6ewwwntovW3wnPvsYx1lwXB4YAZw2rRDBcree7UNF7c3buh/ZizY4i4WN/P8FMDRjj9A2iEjcK/xaEyWv6Q5U36QZGIo1fB/pyk6OLvBsFwIP9lZ1gf4w5RfClFuAmuxclF64jNLPLqKc/dYHkceQ55AHEZV9/jVSnp5aH6oddKgGptX8aQicPMoyOZ5ZEVj5Ow4Jf+biUh4RSR6v6A7ChlyTky/kVcylyrkaLQNyA+MR1gbhLPPu3a2zlnEEGQIlZ8U25O88rFlH3bIyV1bCnHfHKT1ywlzAUDuW8UQs85LW9TKR0jNf4vbLCxvUMGcnygVMFCuIiyWQnBm8IDYOma+vdkZFg8oqAsNTo6nJyEZ1agbcAwzwah9ik5oUmz1tzkl9nnXqLtOgqDDlisBEfZMgGVzlrHkXBbveE04ha6Lcrb5vT/gNflw0jZA6ZgZKT51vaNuc0i8LDJ0AUZeOig4gVtYUY9S1CkTwG9NZh+Qo4XH+tgPIemO95knrmFfSQeCu90V1epZsCUTzIEoeQ1d/44exovpvT5yL4mOnucem/pSA0UMdasQ8CrxijAgY9zT8mbxHu7YOIqWnv0Dh0ZMoPJDAo46LR9Zj5NqzctfuQs7K7VyDaGXyNIah9aJX4T/qSS4VNZk5yPnrTtzZG8/Fr/m4pjpw5Bf/kJSnBDMlmhuC/Cf8Hm1XzRPSD2rpzr6jyJi9XK2YDb+sx1DCqOONM3DzbiE5iIlFoCUsLim/eE1wZzOLcp2loBkTEbxMfQLbelxnwVE8lcJ2LIfh2WHctlanpKHi259QnJCIksTzkkVzKYV+v+2D8LjNoo8pEVX84RlU/XDj7nOdO/z695LM9KWxIl0RK9ZpIUVgaJ1HXzmmRbcgU/rZVyg+/ikK4z/m8qaYf38knDr2RBn/tFeWoPrmbYdn97w4Bm3Xzmc5UTebZ6Y7Rfi5y1BN9ylFYGgkYeB1CzSDQ4KUi6VWrty3d0vqCZw2Fm1Wv+7wnArwN/uNQ21VtaQsbdChsascnlP1kqqYaokLGFJK3QSh25fBvaVe7Rg2/GVnLyL1DzNRW1nloIdSCt49f+Pw/1uMvyTxc8VxqZpJVU1rqmTL7sajoxVl7Rm4gSFByoe0XsyOz9FDVA9kLVDyyTncem6WjQ7qVOh4y9H4mrQsXGfLgYf8WawTutW2l47kforsp6rPhmRUAVM3OUoUGYYPQsuhfaFnm58WylqwTsjP1BGVSiIS9zmoousGXTh5yJNF6mIvjdfjrMfQBIy1AnrTLVmXgk/3zvDuHMNdKKNcyo/RAyyqeAv0PADZ82TOXcWaAd5XJeo0MPaj6VoHQd/nIeES6c+OeesmIHveFNbEU3b+G+HfVLOm2nVDEG34OX9R7oqoV4+RM4Ru2cZju0SPX5KzXk4+vbrB+JH604MHyPztB5G1UPmLtl8NGBpIrvfFOllFWUJKcYhR7uqdPPZL8hQdP43K766r0sG1lOijSvq4MvutzcjbtFfVAMR8X/oF0SVl/yY7pp4TDQcohqm49oPqcZ0RUASGcjKR545Y7kt01Ga8tgKUteMhSlaFv7dJlDV7CWv/eueX9q/wwxvhN6SvAy+lNyjN8WuSIjARZ484NP7VVlQil3lO4aFjLKWZLjlfw3PDELJuoeQNOXnA8yi/8h+LPH0xT1/OixGlOCjVoUS0+ev8/Rq226HNyjkInD5edi7UoFx+6ZpgYAX707UOhE/XTixS7if75UdVUiqSejg2K0dfPQbPDmHie816drosFz9d6CsTAjbo1YnCd0dJvceAgkOtJOsxHW+f15QP4ZlM2ovzURR/0oHV70m29I6ILz1iJg8tZpupuehu4a6W3Rv1fXrA97GHbHRR9TN52Es8UxHlUczghe9ZrdgAqHb0Ipa3SXuB3YYliJJUoZvfVKvWgZ9yy5Rj1kKKewwV0cMPOleBtJ5Y/ruHkfXnuy3xciR1W1aSs36eOWclCvZIZyDldCkCUydsGDkYgX+cwP0xt/2glOnL+NMKtgzOcNtGMRB9d8TbOFSnmNrsM+asQtX1ZO6x7Bm5gakTpDuRftBj8O3dHb69usumPUmm4ur3KDx8HOQpWolSHoanBgidFRQ+2JO5qATlX3/LrheXhYRYdXKa1qEscqqBsR+R6jzU/kGnkZuHh+VxbXkF6EOp+ibq6qSWE4+2rI5eXY2qWxkOBb/6GNNpYOpjEq6ooxkYibfSDEwzMOoWbLPHNHtMs8eoQ0DGY/4L0mNFQMEGsF0AAAAASUVORK5CYII=;movable=1;resizable=1;rotatable=1;deletable=1;editable=1;locked=0;connectable=1;" parent="CRWZv03vXLtkCw0N5HkK-1" vertex="1">
                    <mxGeometry x="20" y="170" width="74.32" height="77.5" as="geometry"/>
                </mxCell>
                <mxCell id="CRWZv03vXLtkCw0N5HkK-19" value="" style="shape=image;verticalLabelPosition=bottom;labelBackgroundColor=default;verticalAlign=top;aspect=fixed;imageAspect=0;image=data:image/png,iVBORw0KGgoAAAANSUhEUgAAAIMAAACACAYAAAAoCdrIAAAgAElEQVR4Xu1dB3hUxRb+dzeN9J5AAgEpoQgoCoIg2EBEn0+KdEgIIChFeIAgKkqVYigioJSEJhC6SAdBgdCrYIIUCb0khPS2ye6bu0uS3b1t7t27m6Cc7/HJY8+cOeW/Z/qMSk8ITzgV3UhC4d+XyZ8rKLx80fB33cMU+VY99ojxP+buUQcEweGZGnCsVYf8tyYcatSCplKo/LrKUUnVEwmGvDzkH49HfvzvKDgWD31WpnSXCgRcqjC1jx+cm7eC8yuvwen5xoBGI1VEueB/osCQf3A/8nZvRcGRg3TOUzDgdBUCqgpucG75Oiq8/R4c6z9HW6xc8JV7MBRd/xu5v2xE3q87oc/M4HYaCTpXSreZh3kaVvN/1kNTuaoBFK7t/guVp5fN1FFKcLkFQ8GJI8hdvwoFp44ZbbV3wNndBY4eBF13S+Xiggrt3odb195Q+wcqFTvF5ZQ7MOTt2Y7slTEounVdcWM5BXLE0/ILV1IRl7fehXvXCGjCqikpVhFZ5QYMTD8gK2a+YUSgONk54BwpxNwklQpOpMPp3rMvHMPrKG6uXIFlDgZmKJj53XRoE87LtaGkGbEUYMsvXDTgxpaNg8z/1bnpK/AcNgaaoGDr7FegdNmBgQwPs2IWIGdTHKArojOlvH3hj7WmCbqQgUyfwr3PR3Dr1B1Qq+l8YQOuMgFDwfHDyIieDF3KA7ZJ/9CAswzlsNOhWg14fz7RMJFVFmRfMGi1yPxhNnI3raVIoHQ9dWqnUYiz9gunCbiQvob6NQ5w79EHHhH9DH+3J9kNDEW3byJ93Chor101sY8iQlK8QSGuXASc16ZS7RyqPgOfL6bYNUvYBQx5+3cjY8ZE6PNypYSWn1ck6E9KwAWd8dgIn/HT4fLqm8r4TUSKbcFQWIjMedHI+XmddGPsHXBGQ4rMYmqIMDulMDE2Mgz16DMQ7hH9pftQYgmbgYFZNUwbNxLaxAvl5wsvrwEXCFoxViq0bkeajUkSwyuN3SZg0KUk4+GQKOju36X62v5JaV2a+43cYsmhmMvpuRfgN/U7shjmKqca0TKKg0F3/x4eftLfCATRriKdGzitkFjULimd4gsXjojouBoO1arDf9aPUPv6iQZXKoOiYCi6exsPhxIgmM0fSIyaOIJ4bfynBFwsiJrAYAT8sJwsegWIsUr6XTEw6JLvI2UwaRoe3JOkAGWOLJFZ1gGXktYpUqM0Xz3mZnzgUKUqAgkgVO4esmRwFVIEDLr0NDz8qDeYzPBPSOnlJeBiUXaq8ywC5sUSZCgzOWU1GJgtZw+H9EVhEplMktgiWP2VS6zP0rl0xS246AqJxdHwO7UoAyM3twvZVeU3eSZVfWJM1oFBpzN0FrXnz/7r23E+BygRcLEgepDpa8+Bn4ixif5uFRgyyNJzzsY4EYRTuoOSjcsiuqLiPXVRb/Ew0NVf3OBL4qZWyefLyXBt8w41v6J9hpztPyN9+gSTLg2FHlb4ga5oeQm4pEaAwnFGFkEfkB8D58fCqcHz1PIsGWVlBuZcQvKHPQAy3cwiuqhxKkxX1HYBF3W4qdYC7bjsaFAEnFu20SdqP39UXLkZKg95IwzJYNDn5iI5shOK7plPKtE6gC7gHGGhLyiqCrWochhwMeNcXm4J/+lzxdg4f5cMhtSxww2HV8SIzuHlu6cuZqPQ72IpXegLt6Zepqz3sNFwZ3ZNSSRJYMjZttmkn0A7NHoacPOY0H0mtHE0k2byfyqu2gwHiTuwqcGgz83BvU5v8xxlexpwRTtPFsL4Ai4EGKd69RG0cCUtpgx81GBInzsD2eRQixkpBHJJYmx0TphXB3n5XlIQWD0kSQ7h6F89rt37k0/h0bkntS5UYCgkp5wfRHQCiih3MXNUL8m+J7DjRuNxOV94qVxJHjR+6c4uYJoLTXAlGvXoMkPM7jloO2kplUBqle0YcIfKYXAkO44dq4fDqVY41D6+ULu5Q+1O/pAT1NDlkWFyGvTaNPLfVCA3Cfrca0DeNXK+8xyV3bZhovYmb/Uq71ZQ14qmUk80M/z16Bp67h6F+X8FIWTvYYNQahXtGPASax8r51i9JtzeeR8V2rSDxtuHyhm8TJknoUs/Cf3DXUD+LStkUXtOZh3c8jV1yYfsXl9UpigY+u79HOdSLsJf74KYVbehT0/n6Dcob6S8ploP9/c/gNt/OpBja3VFjZfDoM+5ZARF8kboC2XcCyGpUhG/0rrdvSE09WJEaxYEw6E7pzHswOQSIWMfhOCldQdEhdIyyA24pXwm5bv9txM8ukUYmgC7EGla9ClbobsTCxTcp6xSoeDy1sYvXx0+Fyrv5oJ6CoKh9+7RSEgtPQirggqbthdBdY20p5QkL+D0jZFHl57wjPoIKgKIMiFdLnTXZ0GfvIFdPe2XKyO4km11qwfNsyvkgeHkgwsYuO8rY2ETo9rnBiMyNp4l1N5DM4eQUPiO+wZO9RpI9ostCujTj0N39UtAK3SXlNXoEFFdWL6mLsliHvy3yfBmhiG/TcSRu8Z9CpZV/HTSE+7Hz5grJg8NkuJSXEWFVm/AjwBB5exMXf5umg6HLmmRlEL2YGTp8Chbj+RMveHvKiLFz11N/qjgS/4wf6/qr0ar2o4I9KQ/CKsvzID+2njoU/dT6yXMqCx4VN4toQ6fw1slJxiSMm6h47ahvIXqFXlhymJyhL5k1VI5pVmSTP+BnFD26j8Inr3JOUQKSrxThAMXtTjwlxZX7usoSrBZagSp0TLcEa3qOKJ2RbqLu/T310CXNJ2jPuX8xG2MuHxNw58BlzDO4pxgmHkmFj9d/EXQebOvBqPaTnZzQeNxwYDzCFA5OcFv4gxUaPGqaBXnbhRi5s48MGBQkupU0uB/bV3QsIr4nkN9Wjx0l0eQOYx8K1QQD65U4apKUVBX5v7QWWDQk0ah9YYoPMq3GEJa1Oqld8Ly1WQZO41M1NB8A5LtKi2gJjuAA6Lnw+nZhoK233hYhO9255FMwLHPQqrXBPhb1XbAkNYuqOInnCn0GaegSzTNYpKdIFFrIl+sCqcgaBrtpssMB2+fwrDfS4eTQtoMTw1BqzUmQ00xRVjCKAqQnb9BZEs4sxOYj7Lz9Yg9mI81R/NRYFsclKjgRJJDj2bO6NPSGS6OTK+DJ3Gn/GLsWMoiiuDKkKuuu4jcPteEVZKVGcYcisbuG0z6pwgU4dq4g1xx97fQUJNODp9NvuR8oRu5Po+P7qfr8MWGHJy9oWyTQOvjRlU1GN/eFcFe/B1N3fUZ0N/7yehT69whohadcFXA+1BXL96yWCrSDAyFukK0XNcDeUUFtL5Amxw/DIo9Ts3P+wVx2OHesSt8R4zllX3+ViGGr8pBeg6dE6xWkkeAl6sKM7u5okFl7r6EXl8EXUJfINNiBCaqkI3s0nhA05jd3zMDAzOUHLRvvKiKlgzLzvnCO/6EaDkpq8/MiaGKKzZA5ejIKXfz6QJM35YLbdkkBJZOjqT7MOJtF3R8kXu4qy9Mh+6PzmS2Ut52QVHnGhjowaOpRyagLOYczMAw9cRCrL20g65eE65qha6Ys/yK4TIOKQHnrYgAIDh2DZzIRd1c9MfNQnwYm43CcgKEYh0dCCB+iHTDczyjDUOHMqGPBP/SB1eCUAOrqlJfqKsMMytmBoa3NvXDg5yHUuUa+KfdDEHtLVLXLbiN9eozgMwnDObUgxkxRC3ORloZNw18TvJxU2FxlBvC/LlHGrrLI40LXTYhCeBxrQlNg03cYGBA8NYm0q4JkUBdbnoHrN6YDv19y0UbCQqSujXevqi0aZdhY4YlFRbp0XdJFv68Xc5SgoWi9UI0BBDucHTgGGUU3EPR6daUUJDmO16hPGI0TciWBI1nSbGSzLD3xmGMOsA1a0apN2EbkB6Cdj9RZAcT5Sz19Bs9zrAMzUXRO3KxmgwfnwTq1tSZ9CEqcKqqS5pCRhcWWwilGMWLEWngUddZQFYyW7LBMPNULFYkkqlKK2n9785w/DPBrC9Dq6Ka3LweunUf6TQ6sbQ4c70QA5ZmoUjerLKVVkkvriEjzR8i3NGoKscIQ5tMssNbxEePR20KBVeqlqqQ/mb9hpLM0GfXZzibnCgqTyywLYsCMeLHo8RQMU52VV7kEivvgeypUm2hHh/My8TN1CcECY9Nq+KnxtqPPTibC2YiSv9go6i/pTFI87nK8yWo68WyM0OzNV2RqyV7AaU2PBz8ixODELD/CIUd5sqHbNkHhwD2FfyHL2sxZGU2hbzyxzK3pxterskeHhtGFn/2FlFYWnAlW+/oC82Lh8zBcDc7GW9vpFsJpKkwtKgC5q8km0qzmQDyGGTxz84Nn0fwj9ybL/rHZOFUkp3mmWkMlMDTrIYD5vVmb7xhngbTnSH3O+YrOe8gHTyaJidJJ9LNYJGhmThE1iMG72NPT0qwmcU64V4oGm7gP4ZnqbbP4BHw6skeg1++X4Su8zPltDrWqK9YWXKNI7YM80CID3uoqb/+Ldk2J7Q3UXpwpSlOlhLqk4vcyR7JEjCsSPgZ0afEN0zSVlTcXfh5M7kR9s4dqmIhcVvhGFaVxfvt9lysekJGEHyGRrZwxtA2HCOL9MMoYqapFSNK8JiwqWtOBbNWUQKGqccXYvXFbYqpVCyoV2YwOq0Q3/PALFFX2cvuY2jJvEKbGRnldoKJ1mHMRNSukZ5w1JjPO+jJXgfd8RdJS8rXBEoPLq1ORj69YTShCv2oFAwjfpsKZp7BFhQX7wqXc3y3xBJjyf8qNG2OoDkLWdVfSy5Ch7m23o5uC6vZMrcN90QlH/bKpu7PntBnkHbblCgxwK5FekFVcA+onxlXCoZeO0bhj+S/bOKVFwp9MG4xWa0TOJrnHTUQ3gOGsOpnJpimk2ZCiJyvLILjXVtN79rEJeVKaGigI1bHGdejDB3Idhv743YW7d5/Q3aRRPOvVkTILuMQhqto0Iy5cCW3llnSpC3ZWH9SeDnd4yD3bKUkBf/lzAf37y0FQ6s1PZCWb0zHEuNM5UZ/kNNYK2+SdMj9LmUlskLpXJd9/KvfkkycFBlSehx6CgaqIAgwmYHh5VVdkaXNkShTGmzGplTGS2u5h5qh67bDsUoYq/53Z6bj1iPhWcenYJAYNg52MzA0XtkR+RJ2N8mpXq1XYeM2LVTXb5gUNwKqys6D0HBcjP36NHLzbJYw6DyfZgY54TArYwaG55b/Fzq9yRco7aOnVua93ED0jWUPIasevQAVx6ttjcc/Et3g+hQM1O7nZTQDwwvL20NL9j9KIbl4WXXKG27HTplVVe0pGKS4XnFeMzA0+6mLjD6DPJ2e1ZHTWDEXyOpt6SghbOcB0kz4swS2mJyGzLynzYQ8T9OXshhN9ERqHvdhGHqRPJwcsZx9vRKqbStdLau8nnQgOaaiW89Iw/0MYTB4UfQZqlYNw4rYJVaZ0r13JG7etOaiDquqt2lhMzC0XtsH98jKpb3IG05YsTaFPFJirDNkaRycOU5TR1EMLZ+CwfqomYHh/U0f42qaaS/f+gqKJfB91yPSKqPlqt8MbMHffg83crLakib+nI11J4QnnbzixecZ/omZITQkBKtXLitx2dgvv8LBQ+LrQFyRNQND352f49hd+19ktWkXWSi5+jd8+30MH47p6HXH8zBhi/D8h3c8OYsgQt7e3ujwPveprLZt2qBiReOj5PfIZt4dO7mntjdsJBei8kyaidVvi99tBoYxB6Kx9ep+6TqbffbSxxdt8vwxKOY43Fq0QvDsH1j1335UhLbRwgeAacAgZNis6Ol4sVEjA8vZc39gyLD/SfdDGZSwGRiiT8Qg9jzHNTR2MHLZeX/4J14DM6LgorbRabgtMAv5FAxGrynWTKxK+AVTjrK/TDtgATV0Hpi59CIqr9kCx9AqrCqnbsvGyiP82+N9KJoJITtmR8/AC42MbzScPXeOZAZyp4IIeXp64D/vvIMqlUPhH+CPnOwcJKek4PyFP7H/N/FL1ovF16kdjmfr1UNYWBUwX7qGbKl+9CjNkKF27dmDbCLXkp5r2BDM7qkAf398+flnJT8vjlmKP86TC1Qe09/XkpBueTMfj11mfYajd86iH+k3WJL0xC/mRu7fp98OxcuVX4BP5Icshot3C9FpHvcCF8NsbzD07N4NEb16wMWFfciH0SczMxNzvp+PXbv38DrDzc0NX44dg+YvN+PlYQI5YfI3OH7CfK9DceDEPC0lU5iBITknFa+u6cWWbyc0uOrVWHc+CFXnLOa0ccCyTMSTHdJcZE8wjB41Au+2e1ssDobfY5YuR+yy5Zy8Cxd8jzq1a1PJ+WrCROzbX5ptbA4GRqvGyzshR2u6kcROSHjskoEZofio23g4BFdkOenQpQIMWJbF6Tzfw+KjCSGv0zYTw4YMRscOxr2CDP26/zf8snUb/kxIRF5eHt5p1xaDPyIPmJMriItp8CfDce6P0tTN/Ptrr7bChK9KL+/YvOUX/LrvNyQkJqKAzMp26dwJfSJ6w83V+MRx0vXr6BVZuk9y9swZ0JB1HGdyuZkpoK4lmTcLi5bEkmZD4B1yE6eYZQbm3yO2jcbJe+aKU0FXQaafKnbDc+04MhSp491ZabhGbmqzJHuAoeUrLTB5wtclVX8zbQa2cwxBAwMDED19KqqGGZfjL1+5iqj+A8xUHjViON571/iwGNfvzL83bFAf/xv2CTZs2kSam73Iz2f3mWw2mmAU+Pb4EtkjCqocQsHURBOMRZ1mwdHDixX0k9e0iIrJZB2vswcY5n03Gw3qG68RYtrwEZ+O4f0EaofXwqIf5pf83jMyCtdNlu3HfDoS77zd1vB7BulfdOzczZBZpJJNwbD72iEM+3WKVJ0U558U3h0dXuF+I2H6jhwsPWTuOD8bNxMBAQHYuHZ1iZ2jxozF0WPCN9VsiFsNJkswNHfeAqxdXzpsZ5qTMaNGlsg7feYsFvy4EBf/uiTJlzYFw/3sFLy2Wuy4lxR9KVIBhzg/R3ds67wYnhXY2aGAnLnstSgD52+VHsm3NRiYYSfTr5BLcevW4/v55sP25bGLUa1qVTORueQhuITEi2R4egEHDh4yNCFCZFMwMBW/vroXWbASuu5WrkuklWtfqzUmt+SeCWRmJTvPT8ejx5d1+B3uIk24BbdYB/KtNq3xxWejZdexe89eTJwy1ax8UFAghg76GExfhI/+JpemfTVxEpKSrnOy2BwM4+PnIi5xu3TDKZIABYtZvTHtvkGzEO57jk9f16LPkgzDfU62BkOL5i/jm0mlRw+XrVgJHXn2mZaYL5xvAYlZQOvcsQNatWoJT463KHNycjBy9FhDtrAkm4Ph4M2T+HCn3DsLad1Dxxfo5oftHyyCmyP3hRdbz+Zj1Nos+B+xbWaoVasmlvy4oETp3n36gRnGKU01qldHs6ZN8EqLFmTIGF4iPuXhQ/SMiCKzkean0G0OBkaDRrHvI7ewrG9HMeaR92q+gWmvjuL1+xmSIYZG0k0C8QkRayaYcju3/gxm1pChhUtisGKl8K0rzCppGs/NucV6eHl58U4X9+rZHR/2jSpR+bMvxuFQvPmJN0swfPHVePx+4KAsjLLmGYqlDN0zEXuSuI7aSU30svRiHdwY1bQfohqQx9J46JXXyLF2K4gGDKbDwaysLPQb8DFu8xworkzWKxaToSWzTrFw8RJculz6XgejJtM09OrRHW3efAO9+vTl7BMwE0p7d5aefZ01Zy42bja/VYfpd6xfUwrK7xf8gLi162V5ghcMu6/F45O9E82F2gkHTKWWVTEPnix462u8GvYSp6H2AMMzz1TDsiWLSupPTU3FtG9n4vARckONCTF8306dAmY4WkztP+iClBTjDXphVapg5bLS0+737t3D1xMnG2YxTalN6zcNaxfFNGzEKJw6zb5Q1HRqmpmpHDx0OLkOsRC1atZE6qNHZvMbQijhBQNT6KWlnZBRUDr9a0cscOpcwcEFq96LRh3/6qzf7QEGplJmKpqZkjalGzdvGlYYtQVahIfXNKxAmtL38xcgbp351oDp30wmfQNzYCde/IsAIgEeZCq7dni4YRWzmJhRRUTf/px+mT6VyHqJ+yOJnjUHzFQ3DQmCYUL8PKz6k04QTWVK8Lg7ueL71uPQ1GKEYS8wMDb07ROJyN50j4ZyAaHYD8zohBmliNHDh6kYOnwEGNBxEdPRXLhgHudvioHhQvIldNrE//iImBHs301yi5VpZvrrnxo6lsVkTzAwdb75xuvoTTp4lpNGxfocOXYMzN6CS5cuC7opMqIXenbralhw4qITJ09hEpmfYNK9ENWtUwefjR5Zsh5SzGu52ikkQzAzMAV7bhmJk3fLduGKz4CBjbphWONIw8/WgkE6sI0lataoTtJ5GALJ5pYiMu/A9AuYlC5l2Onm5kr2NLxMNraUvkir1Wpx8tRpME2HFKpVs0bJiOf+gwfkwhz6u6JEwfDbjWMYuMN4iQMtWfnR01Zj4KvhE4Zpr43ER50/llTuKTPbA6JgYIq8u/ZDXH7EPR1a5k59jLzAuPJ9dXCZ+4lCASowbL/6O4bvlbCSabPUwC84MI5+apjCL/9KFiowMJ7puGEwLiRzdYZsFnlJAXkKBknu4mSmBsOZ+wnousn8XQJrq1cSRkFPM4O14QA1GJiamI7kvuvms21WayAmgBIxQWufNhNirhT7XRIYbmfex9tx/ZCnLesFLLZZT8EgFmrx3yWBgRG35Ox6TDvCvqtRvCouDsrPnkK4x1k9nG7p4ZDD/5wghZh/NYtkMDDX/HRYPwgJKearcLb0omKQUUwQt7VB5EDN/tqXoNLKe9KJ34fyFU+44YD3v/bkvXPbgbwX2o6cAekb1QcNyG5shngfRudS8K+H1wxzD4qQfDsVqV5JIesb+aFevvEuRWGytdGl8tt+7o2rd9iXl/v6+qJ7967o3aun2eqqZDAwBRadWYvpR0qXc8XMf/J/Fw5gMz8fxFQkm0r03Ce+rLNfHngmr3LD0j3mx/+YNYw+fSLw3nv/gRN5V5yLJGWGYgE9No/A8Tt/WGenVaXlOcmqKklhrsd1Djd2gG+u+Juexrpl6k1dTI/4BCdEfmt8hExNTl61IRt6IyN746Um7OeOLf0hCwzM2cw2q6KQVWC6L49aY2tjwiov4wUkRXQY8ExFDHeVcRs/tauoGQ32pGer0XqsD4pUXujapTMiyDG9SpXYxxX5jJcFBkbYgRsn0G/rWIJ1boXLKkCKRJlCiJNKjdONHsAhn1x/RB0zakYKDcxZinQqfLGmLp5/dRA6dGjPe0pcSLBsMDBCF56O+5f1H0pdObd+MFrrZGQFSWGmB0+S5iPUeOUbSdIVaSZMhXyyexK2Xf7NKiXsW1jAwZS+r+xaAXtqkT5TodS3MCgrkOgQVcUIaMLnSCzFZrcqMzDiCoq0iNjyKU7csWYjjPUBEvOEkmHY9qI3auTtI1UqKZXLAnH5Kr825J2pdWLmU/1uNRiYWnLIE4jdNw3HhQfSDo+Km0plg12Z3gj0xfxAZk5BjvZyyvCbp/JqDk1D8p61mnvrnFTHKAIGptJMMrLotG4IrpTXzTBSPcPDf6pxEdxzzz7+Vdngsqvkl6/yaALN82TTspr7xJkccxUDA1N5al46emz8Hy6lJsnRxfZlrIzd6PCKiHKyZtc4jwIS9VJ5vECAQA7VmDxqroTzFAUDo9CjvAx03zicHhASHcFttCJCDKL5JLlpNDj13G2oC26bqKBMcPkDyZZvBAIZxTx+mFQJEBTLUBwMjOCM/Cx0WT+UHhAiFikXavmui20YiOZFMk6om1VpnSUqr6akj7DZJkBg1LQJGIr7EIN2jMehGxbP9MmPR5mVrOvpjs1VjwE6y5f0rAuuuEGl8lUB7aGpS7YQKNhHsKzfZmAwplw9Zh1dinknVvLOVIo7RAKHjWKzr4krQnPpL/uUkvZFrVM5QF19AtSVlTzUxF2rTcFQXOXv149j6I6JhhFH+SNhBHUKDcAUH+O7j2yyEfqKK3IKInMIq6Dy5D5PqbQv7QIGRum7WckYuPVLnKeai5DnZHmlhF16vnEGXPKknW5SIjOofFpBU28F4OindMx55dkNDIwGRfoiTItfiMWn19mn2ZDrxseomlQvGF00QkNJG8CPaRbIc8TqKuJ3WMs1j6+cXcFQrMRB0qn8dO803MuScJmYDfwu5EwfJ0ccbXCFDCUlvAQsJNCgv4gRruGkk7iINAvksfQyoDIBA2NnbmEeZsQvxrJzm8yfUSwDJ3BVGfeCLxppd4pkfIUQSqaT1VU/hTqMXFlEMkNZUZmBodjgs/cSMfbXaCSmCN97SO8g8QCJcbzo64k1ITR7Gum1MnJyTCL5vmFccazAvohEqnRr+cscDMUG/HJpH6bHL8LNDPqj5LKNF0HDkaaOCMihee9JDFYCGro3hKbGZKgIGMoLlRswFDsk9uwGxJxZj5vpdgAFRxQiwsijHl622rRCwOPxHDShg6CqyH1helkCo9yBodgZR26dwerzW7HzygHDngl7kJpcJnahSQqc8mjPhlBmBo0H1MFdoQ4dCLiZ3/tkD7to6yi3YCg2ID0/ExsSdiHuwjYw5zZsSbPrB+FdlfkVe9bUx+w3UFeKhCqIXF1ow2lka3Q0LVvuwWCqLNPZ3Ji4CztItniQLXB6ifKDNZUd5OKM+GfJA+3aVAm+5ajItTbUge2hZpqBctAplGCM7RaqpCghh/eP+xdJE3IQvycdIzushC/TopG/7SVf1M6Ttyqp8m4Bld/bBATkpZoKNWiqK5c8T1Rm4PMgs+Zx/NY5xN88jTN3E3D67p+SnN0y0AuxFTkeN+XKMGRDicqzEVTezaHyaQmVF3l0TKFtZ5KUtgHzPwIMXH75+9FNJCZfwVXy39TcdGSSPRYMaLLysw37LTLI35l/Y3472cwBPlqyf9OBBNqBvHNh8sfw/50CoTZKaFgAAAAdSURBVHKrC5VHA8A51AZhKB8i/7FgKB/ufbK0+D9ZA7JED3QBOAAAAABJRU5ErkJggg==;movable=1;resizable=1;rotatable=1;deletable=1;editable=1;locked=0;connectable=1;" parent="CRWZv03vXLtkCw0N5HkK-1" vertex="1">
                    <mxGeometry x="20" y="67" width="79.32" height="77.5" as="geometry"/>
                </mxCell>
                <mxCell id="CRWZv03vXLtkCw0N5HkK-20" value="" style="shape=image;verticalLabelPosition=bottom;labelBackgroundColor=default;verticalAlign=top;aspect=fixed;imageAspect=0;image=data:image/png,iVBORw0KGgoAAAANSUhEUgAAADwAAAA6CAYAAADspTpvAAARvUlEQVRoQ8Vbe5CV5Xn/fee+Zy+wu+yy3JabCI0gkBDHAHKxpTESiI6Z2HYaTacIiu20/oPWTOu0carRpCaxdMykDZ3OaCadadLOJLY2YxyRNKZGVIgXCES5u7DLsvdzP/09z/u+3/eds+cA7jLl08M55zu39/dcfs/ved5vve6Nd5VxxQ4P4P8o1/5Kjy+WPf7Lmxxlvo9n9P7/6/CuHGBFquuOxBJItbQi1dSKeEMjYqk0orEUb1F5EV6EMAmyVCzyVkAxn0Mxl0UhO4q83EYHkRnsQ5mvX+njCgIGmqbNQtuca5Fu60Qs0YBIIqXeFFB6K5VQLhV54731qrmXyJBbRF8v5DIoZEYw3HMCA6ePEnjO2NIExqSOKwDYLHbW0hsxbcEyRKJRFLNccCHP9ZUIlDcbtgajgJVwLikIB16f6//0aplhH4kgEk+pp/sO/xK5kQGLeHLhfwUAA11LVmHW8nXIcnH5QhE5gkzGPIxlC0jwPipeFq8qQpOz7hY8N14vl+x7+F4J+Wg8yXDPoeedn6EwNjQp78qHJw04lkxj8cY7mJpx5LiwloY4/mD1fCyc3oz3Tl3As/uOYCSTR4SgjTcFM8NaHEWvmjsb4vqaGMM9FwMUmRoNGOvvQe/h1/QzkzkmAdiQVEvXfMy/YZPmnXj3rz+/Aquv7fTX9JMDp/DoD/YjEWV+crHiQAXqvMwTxvOhc8YqFjjDnAaJMrz7Dv0vMgNnJ5XPEwYsZCSLbp/3MXR/fANGBgfQ1ZrGnu2fUqKSNQsP5Qsl/P43X0T/SFZD23nPedJEuQtxyWv3OBQJAjjVhIET72Lo1OGrA5j1RQlo2oKlmLNyPUYH+jWc99x7E5p5n6O3EyxDvYMZfPHvf4pMruDX3IC0wvnswBpCU/a24NXDDOvhsx9g8Njbk4noieew72ECnr18PQojFzBCkrrzxvm493eXaM7mSV5P/egA/uO1D9AQj6BYkasuhC1bh3LXz293jm+REjdy9hgGj181wCYn2+dfR4Zej9xwvxJQLl/Esu5WXEPSepek9atjfUgQrCOs2rlay9NyzoV1mR5O0cMnMHS1AFsNiTYBfP1aAr5AwCoetRxlCyxJJKpkLGJKknhLTEKSKtlw1ZCVuqxONq9pODvmtmXMhbR4eIh5PJljEqRlPSw5/PGbKRDOG5YSsrISs8SSUlIQYVIyOSpyUr3utLSydZUoEfAiRsoFsnQDRs8dx9DJ9yaD93JzOBD87tec0muZuQAdC5cjnxk26s9nXaumFJBhYkdCYpUo9bVGiXrfetUXHtYQagSpWLYWi4dPHSI/MKfln+pD9LkJlLrHRTwcNAOTMmmdD3ddvx6JdAuKBedpQWZD2gHVWCcIy9Li4WECvpxDg60G8EuGtJBFemoHF9fMiGUY+y421jd5qH4w9dGFqJ43r5s7+0kNAw9NXfO0qyqVCoGcHFePTZRIzovEzPSStFiHN6xIYMWiODLZshZHOTyG1tAY8MaRPA7+pmDPjQddF3CcIdd5zXI0z5iPeJKdTzyhIRgOzUAGhrwTWrSqwCoFZT5fQm6MKcBQDYRGjfx132U9nD1/EoMnD+HpP23B1tunAyOjACuAtShAkVMcKWDvm2P4q38axvFzpNEqT1cBNmGcbpuOuas2oYE9bX5shGGXV0v7izP60JCRIyUnD204KtCK1+x73edCnjdCI1yPA1kp32M8nEJOANPDj21rwhe2TkGhPwsWgeCgl6NSK1oTOH5kFHd+ZQineytBj/OwhO/CNVu0GZCGXExUu4aaGmkqhyslZqGB14xRtCXU08aLFV4XA4Q6JDWS9okmVQxLs2tilBXOn8YAPfzVe5rwe7cR8HnKVc4UrIvN9/K/IrVAvD2Bl/cO4+6vZf0A0NAPTzwikSiuuWkrPdylnhUSrWzjgrAbH9oBC1dKQ1mHKz/Oi/XC1xpE328/Z9ldWD3XZzz8xPZm3Pm5lsDDmjum1nsKmqHN74ilo/jSo6N46a0SmV0YnNUmDLi9ewm6b/gdiojBENG4sK2xSH9R48NRiapKcPj12PdqIEiMlyvLk/G0BBkXmkyhQMADBGw8PJUeHmVIO8KUNRjDyn2xyPBuieKFlzPY8a2in8shwB4Wrt6Mpumz2WiPWHIVsG4RVeHot3XVuWkW6YsIfl7B2x5Yvs88tzmujy1YP4wt8/t1hWzM5iHff1pJ68kdzOEt4uExxDwD1JQI+1hKmeRypITh4RLW7yqhz84OfMCxhiYsXn873xRlqRjPntV5GZBMrSagOpdd/obD3hHT+HOydiEqlRYyQSIOCenRc8cwcuYIvv1AEz69IY3igACWNzmgBriBy0cyMUl52PH1Iv7rdU/DmoDv1gLaMmMu5pGZC/msJZZaC6pBOpa0DBG5nK/f6jniCjjAGcwoMkdoitX23AIhzslK/wfvojRwGi/+3RQs6ObsLEPJqTMwEyFhDwvoAiMm1hrDM8/m8Pi/RdmPE/BcApYv7Fy0EjOXrUF2pN+GZDUJGS/5rOwDteXJ1szKuhoGEXh5PNhK5nZg1Xf8XiFTr5RD76/fwMq5efzwsVbW3LyCjOiaHNgw8DIBs49uimLvLwq466m4ppIf0nNWbEDr3MXIjdpg9wWEyT8DNAzuI5YfKxsrDWZD35KYM4SZW+v69IilGjF68h2M9J3G7vtT+OwmEtiFjPGYhnMIqNMDVvB4xHmmh3n8cIJDiYgFzDyYf+OtaGQ5ktmUekmN7livGmgQui6MjdBw5cQYqGR/tH7+j08bsythGgMvGqMeSCJ37igGz7yPW1ZF8MyuRpQYyhE6wbM13ict39uGwDQ6SABZStCNf9mAU30WsBDVwrW3IZluMqpK1VAofF3rpgRrwfvTC2scC9iTnQWKFh3Ah8nPbxNNzlYawfyWG7Sr4YpcRz6D0bPHdXB3w7UR/OODDRwf8b0UFlJvBVQF6LABXEQRsKzw84834vWjTA2pw5FoHNesu02nCrJDENREV3Lku614cKNWWyOFHKTnFaNF6JE8OUDm05mRIe1yXLRU3Gu42pg1TBWgFY7l9+XGMojkZfgOfGFDHI/cHUdTkiqKszHWERPGjp1tGJvnQXhrvImXY2X80Tca8NMDCQPYi8Ww6Kbb2SAkCVjIIABaSyqqQXxPs1elzs1zSD544jDHMCdNHeERDSdikJKXfCQ92bTWItYuS+GODQl8ankMnAKixMGgvKZrquVdR14WuKsIHg218+kGPL+fWz8KmJ5ZsGardkVFetiEW3VpCZOXLUH0oBgpc6EHPYf2kzkzWH99DJvXpHHdnBia01JEjSfrbwtpVbQek30nIJUoYUpjGakpFMoiIoaph4WR+V0VYO0ax3k6JDVVbibK2PF0M154M+lIyyNpfQbJpjbuCcnGVbj8OMJSFgsxNRcQTSAz1Iez77yKdCyLv93Rits2cpKRYAuTNcQ1/rAA3QvhkiKe0VThjd4s8qYhyYhxGlmeu/ytGdZOdfFe1ZY8p+L6w6dase89B5g/M3vlRjR3ztHtyqAE1RIaNpzteObDg6/Ay13AnofasXYd5d458/lItJZPLVhtUkO1MyQJ3XkDqjJP9VwIUHXOhg3g5KoMBgocF9/yaAd+/SHJ1DUPnYs/waH6ct2lY1PhC3/NVY1uU3LcDCpK5TN46j2c/83b+PM70nhgezvyPRTz1HpOIUkga5UZl8uB5q0Zjo6QqmtsFQvXDmVLWuphKW0l9FJLrXukC6NZLUt3q9mnzFqEGUtXczN6SGnckJIF6pcRMQTzjEBk0H7yrZ+hOdKPvd/sQMtU5hvLhW6aSdipCK4KX8eml6if1sJBFPifC7Fz2BjV0aA6QlpEdkyNHvb+Moq7dnNCIgbo3vglXVWqpZ1hvSEoJb6qMowbtHpG45YY+qfeeBm3fNLDtx/uQGmMWyk2io14MCUhoKsqRVTPWxczRi0JWcMY2lbyvXIBQWyKhyeea8LuF1oRZStpPWxUTfcnNyGWpJKRoq+lyYJVsrKg+QNSbwust2cO/g+2b07h4fvbUexj3WTe6vS0OoT93LN5+RFy8VLEVC+nlc216S9j8+MzuQsiVyOohyWkjUc6Fq/CVF6yIGGtXnVA/RJlGFvUVGmsH6cP/hw7t6awa2cHm3PTm2oo+0eQT8bjIdKpQVQV75lgHrtyWuTnow3A/nfiuOOp2X7B8D0sa2yY2omZK9ZZPS2ADcBABtoxCgEXCfjDX72K+wj4ofumKWAhZmFFMxuqw8JhoNVKyRcOzjiBarqkMUKf1Z0NTjxinHjs+k4bvv/zKdpoFHXEc7N4ODg6P3Yjy1O39bId4Pneth6mFBXAPW+/qh5+8F4C7mX3EjWXIdUU87Xy77Ly+DJy386z5Hele5LcjTR4OHYyis880Y3RXDDaDAE2YS2Tj67r1uqlRoWsG/VYdras7RFwaWyA110Q8JYkHtzZScCjJAUjEAI9G6qjVr3JgtxUMtywX7TEXGZ5Um6mZz25riQdwfZvTccLBxpVjoopDEtXeNiAjjdOQceiTyDZTOUlExBtKKzKYlnyuGNQHD1PwL+wHm6n4BgxLFgt7GuUDAWnRq9Vj6saAz8KwsYLkV/YGLL8FMtjoYyv/utU/MOLbTUG8VUh7Qgswjxt6prLctUBj3rZXcZA9OwKjIfPHX7dePheGkYBix3dwkL550hP7WzYP5sz/WqlZ6ufVyqrYPzrjOI4RhjZw1DGw5snGvC9vc3Ye6hxHNgaHg5nc/BYWj/lIaVuw0kxkWzc2ti5JUHAHJlSUvoh7edxZf5Jl+UxCvIUKLc8ksCRD+u3FLVWIrsMSTYW9Y5i0UMmb0O3aovFfWYcaVV+mRUQNX7Bsd7OLXE8uJ0aWnPYhXQV0VgDiIdU29JQX/l+DKf7zQZ6Zd22HKreN4/l3zgl4om+GA4cS9YFrB6USiE5K/q4xnEJwPW/Wy6blGZm52ejIcBVE4iq2quAXc4l7Py1gqnr5KbQLkvMf78UwT3fmVEzVC9qhdCL3tybRVp+9CPGElRgCN0ngO8ho/eyDmsO1yOd4LyfixWh716XWOQQwkkFbqeqJm728PwrSfzJP8+8SoAZvoUSAW+OEDA3uvpcDlfV4RCLanGwwt5XXWEW5qUNZEMyOHvqkgwT2Zt7KdZVjltbPPz4lQYFPJljwh4WkSEkcd+tHgEnQx6urL2+4qrb3dhcFbDycNpdQPNqdl69wNnvAqP7WWXSbAKAH+01gOvt7l+OISYOmB4uqoeBXdu4tcrmQUgrYieV9cYutSUiw7jIDbyOPwY6twXrzp9H+cgXObg7T8AJ/HhfCvfvuUoe1rJEJty2qYQvb6e25uZ0hEzqscaaPK7TGV1sYjFvNwX94oC1I5yiH/8ydwmfR7RtKv79pRQe+Jeuq+NhJ9dW/1YJzz1EEaGXFgYNQ825U91el04tcTQ05zFgys18TNLyYvrnAji6DcWhNxFrb8aTz7Zg90/aNJIkuiZyTDik3Y8JW//w4RyWLWGZGswjRi+byaIdoNXzaIXktIBT9G734ygnZ6uXvb7voXj6G5w6cvchU8anH5uHY730en15cEkbTAqwI48V84t47i+ySCeLHMQXuUld2fdWNhShtlFbT/m7BmnJpTPjODY2DWhcoaRVHH5LL72ItMTwN3ta8d2XWycVzipMJlqHnSkd6DVLCvja9jHMmMFXBvkHG3m5mMQMzh2Bmb9gCWq1e2wuPpL3ydV98vcRvHaDoxOvmVs/2RKe/EEbnqnRCFzSnbWU1mQBy3e6fJ7B3YI/2zKGz60aQ0Mb446aGdz40r97YNumwDXUxas6NeZTk4sRYXjBLZchseMpDRex790GPP38VLz2fnrSnvUdNPe3J6a0qo3nLhqR8/M6C7h15Rg2XJfB0lkZpNMEyv5UB+wiE3VWRqACUK8j5H2GHRR56/2eOPYdSuM/32rC6+9zRhMy6EQ8Wv0Z70oB1vzQyWzQbMu5GVPzWDonh0VdWcxuK2BaU4G5btq5TNZD30gUZ/pjOHo2joMnUzjRy1471BCFDXklAP8fpd93Enb+XwQAAAAASUVORK5CYII=;movable=1;resizable=1;rotatable=1;deletable=1;editable=1;locked=0;connectable=1;" parent="CRWZv03vXLtkCw0N5HkK-1" vertex="1">
                    <mxGeometry x="16.73" y="264" width="75.52" height="73" as="geometry"/>
                </mxCell>
                <mxCell id="CRWZv03vXLtkCw0N5HkK-21" value="BillCollector.py" style="sketch=0;outlineConnect=0;fontColor=#232F3E;gradientColor=none;fillColor=#232F3D;strokeColor=none;dashed=0;verticalLabelPosition=bottom;verticalAlign=top;align=center;html=1;fontSize=12;fontStyle=0;aspect=fixed;pointerEvents=1;shape=mxgraph.aws4.source_code;movable=1;resizable=1;rotatable=1;deletable=1;editable=1;locked=0;connectable=1;" parent="CRWZv03vXLtkCw0N5HkK-1" vertex="1">
                    <mxGeometry x="170" y="67" width="116.92" height="160" as="geometry"/>
                </mxCell>
                <mxCell id="CRWZv03vXLtkCw0N5HkK-22" value="" style="endArrow=classic;html=1;rounded=0;exitX=0;exitY=0.536;exitDx=0;exitDy=0;exitPerimeter=0;movable=1;resizable=1;rotatable=1;deletable=1;editable=1;locked=0;connectable=1;" parent="CRWZv03vXLtkCw0N5HkK-1" source="CRWZv03vXLtkCw0N5HkK-12" target="CRWZv03vXLtkCw0N5HkK-21" edge="1">
                    <mxGeometry width="50" height="50" relative="1" as="geometry">
                        <mxPoint x="240" y="57" as="sourcePoint"/>
                        <mxPoint x="286.64181818181805" y="106.9923407183569" as="targetPoint"/>
                    </mxGeometry>
                </mxCell>
                <mxCell id="CRWZv03vXLtkCw0N5HkK-36" value="/Downloads" style="sketch=0;outlineConnect=0;fontColor=#232F3E;gradientColor=none;fillColor=#232F3D;strokeColor=none;dashed=0;verticalLabelPosition=bottom;verticalAlign=top;align=center;html=1;fontSize=12;fontStyle=0;aspect=fixed;pointerEvents=1;shape=mxgraph.aws4.folder;movable=1;resizable=1;rotatable=1;deletable=1;editable=1;locked=0;connectable=1;" parent="CRWZv03vXLtkCw0N5HkK-1" vertex="1">
                    <mxGeometry x="189.45999999999998" y="321" width="78" height="71" as="geometry"/>
                </mxCell>
                <mxCell id="CRWZv03vXLtkCw0N5HkK-47" value=".env" style="image;aspect=fixed;html=1;points=[];align=center;fontSize=12;image=img/lib/azure2/general/File.svg;movable=1;resizable=1;rotatable=1;deletable=1;editable=1;locked=0;connectable=1;" parent="CRWZv03vXLtkCw0N5HkK-1" vertex="1">
                    <mxGeometry x="361" y="158" width="56.00000000000001" height="69" as="geometry"/>
                </mxCell>
                <mxCell id="CRWZv03vXLtkCw0N5HkK-48" value="" style="endArrow=classic;html=1;rounded=0;exitX=-0.012;exitY=0.539;exitDx=0;exitDy=0;exitPerimeter=0;movable=1;resizable=1;rotatable=1;deletable=1;editable=1;locked=0;connectable=1;" parent="CRWZv03vXLtkCw0N5HkK-1" source="CRWZv03vXLtkCw0N5HkK-47" target="CRWZv03vXLtkCw0N5HkK-21" edge="1">
                    <mxGeometry width="50" height="50" relative="1" as="geometry">
                        <mxPoint x="-39" y="71" as="sourcePoint"/>
                        <mxPoint x="11" y="21" as="targetPoint"/>
                    </mxGeometry>
                </mxCell>
                <mxCell id="CRWZv03vXLtkCw0N5HkK-49" value="" style="endArrow=classic;html=1;rounded=0;movable=1;resizable=1;rotatable=1;deletable=1;editable=1;locked=0;connectable=1;" parent="CRWZv03vXLtkCw0N5HkK-1" source="CRWZv03vXLtkCw0N5HkK-21" target="CRWZv03vXLtkCw0N5HkK-36" edge="1">
                    <mxGeometry width="50" height="50" relative="1" as="geometry">
                        <mxPoint x="-39" y="71" as="sourcePoint"/>
                        <mxPoint x="11" y="21" as="targetPoint"/>
                    </mxGeometry>
                </mxCell>
                <mxCell id="CRWZv03vXLtkCw0N5HkK-6" value="&lt;div&gt;Vaultwarden&lt;/div&gt;&lt;div&gt;Secrets&lt;/div&gt;" style="image;aspect=fixed;html=1;points=[];align=center;fontSize=12;image=img/lib/azure2/general/File.svg;movable=1;resizable=1;rotatable=1;deletable=1;editable=1;locked=0;connectable=1;" parent="1" vertex="1">
                    <mxGeometry x="686" y="379" width="56.00000000000001" height="69" as="geometry"/>
                </mxCell>
                <mxCell id="CRWZv03vXLtkCw0N5HkK-7" value="" style="endArrow=classic;html=1;rounded=0;entryX=1;entryY=0.5;entryDx=0;entryDy=0;movable=1;resizable=1;rotatable=1;deletable=1;editable=1;locked=0;connectable=1;" parent="1" source="CRWZv03vXLtkCw0N5HkK-6" target="GLKqkrCOLmCW1IYTedix-4" edge="1">
                    <mxGeometry width="50" height="50" relative="1" as="geometry">
                        <mxPoint x="469" y="629" as="sourcePoint"/>
                        <mxPoint x="519" y="579" as="targetPoint"/>
                    </mxGeometry>
                </mxCell>
                <mxCell id="CRWZv03vXLtkCw0N5HkK-8" value="&lt;div style=&quot;line-height: 100%;&quot;&gt;&lt;div&gt;&lt;div&gt;&lt;div&gt;Vault&lt;/div&gt;&lt;/div&gt;&lt;/div&gt;&lt;/div&gt;" style="image;aspect=fixed;perimeter=ellipsePerimeter;html=1;align=center;shadow=0;dashed=0;spacingTop=3;image=img/lib/active_directory/database.svg;verticalAlign=top;movable=1;resizable=1;rotatable=1;deletable=1;editable=1;locked=0;connectable=1;" parent="1" vertex="1">
                    <mxGeometry x="349" y="295.5" width="46.62" height="34.5" as="geometry"/>
                </mxCell>
                <mxCell id="CRWZv03vXLtkCw0N5HkK-9" value="" style="endArrow=classic;html=1;rounded=0;exitX=0.947;exitY=0.532;exitDx=0;exitDy=0;entryX=0;entryY=0.5;entryDx=0;entryDy=0;exitPerimeter=0;movable=1;resizable=1;rotatable=1;deletable=1;editable=1;locked=0;connectable=1;" parent="1" source="CRWZv03vXLtkCw0N5HkK-8" target="GLKqkrCOLmCW1IYTedix-2" edge="1">
                    <mxGeometry width="50" height="50" relative="1" as="geometry">
                        <mxPoint x="469" y="629" as="sourcePoint"/>
                        <mxPoint x="436" y="314" as="targetPoint"/>
                    </mxGeometry>
                </mxCell>
                <mxCell id="CRWZv03vXLtkCw0N5HkK-10" value="" style="endArrow=classic;html=1;rounded=0;exitX=0.5;exitY=1;exitDx=0;exitDy=0;entryX=0.5;entryY=0;entryDx=0;entryDy=0;movable=1;resizable=1;rotatable=1;deletable=1;editable=1;locked=0;connectable=1;" parent="1" source="GLKqkrCOLmCW1IYTedix-2" target="GLKqkrCOLmCW1IYTedix-4" edge="1">
                    <mxGeometry width="50" height="50" relative="1" as="geometry">
                        <mxPoint x="469" y="629" as="sourcePoint"/>
                        <mxPoint x="536" y="390" as="targetPoint"/>
                    </mxGeometry>
                </mxCell>
                <mxCell id="CRWZv03vXLtkCw0N5HkK-11" value="" style="endArrow=classic;html=1;rounded=0;exitX=0.5;exitY=1;exitDx=0;exitDy=0;entryX=0.5;entryY=0;entryDx=0;entryDy=0;movable=1;resizable=1;rotatable=1;deletable=1;editable=1;locked=0;connectable=1;" parent="1" source="GLKqkrCOLmCW1IYTedix-4" target="CRWZv03vXLtkCw0N5HkK-1" edge="1">
                    <mxGeometry width="50" height="50" relative="1" as="geometry">
                        <mxPoint x="469" y="629" as="sourcePoint"/>
                        <mxPoint x="519" y="579" as="targetPoint"/>
                    </mxGeometry>
                </mxCell>
                <mxCell id="CRWZv03vXLtkCw0N5HkK-25" value="Duck DNS" style="ellipse;shape=cloud;whiteSpace=wrap;html=1;movable=1;resizable=1;rotatable=1;deletable=1;editable=1;locked=0;connectable=1;" parent="1" vertex="1">
                    <mxGeometry x="98" y="174.5" width="120" height="80" as="geometry"/>
                </mxCell>
                <mxCell id="CRWZv03vXLtkCw0N5HkK-26" value="Let&#39;s Encrypt" style="ellipse;shape=cloud;whiteSpace=wrap;html=1;movable=1;resizable=1;rotatable=1;deletable=1;editable=1;locked=0;connectable=1;" parent="1" vertex="1">
                    <mxGeometry x="98" y="260" width="120" height="80" as="geometry"/>
                </mxCell>
                <mxCell id="CRWZv03vXLtkCw0N5HkK-27" value="Paperless ngx" style="swimlane;startSize=20;movable=1;resizable=1;rotatable=1;deletable=1;editable=1;locked=0;connectable=1;" parent="1" vertex="1">
                    <mxGeometry x="430" y="980" width="210" height="30" as="geometry">
                        <mxRectangle x="230" y="370" width="160" height="30" as="alternateBounds"/>
                    </mxGeometry>
                </mxCell>
                <mxCell id="CRWZv03vXLtkCw0N5HkK-38" value="" style="endArrow=classic;html=1;rounded=0;movable=1;resizable=1;rotatable=1;deletable=1;editable=1;locked=0;connectable=1;" parent="1" source="CRWZv03vXLtkCw0N5HkK-36" target="CRWZv03vXLtkCw0N5HkK-27" edge="1">
                    <mxGeometry width="50" height="50" relative="1" as="geometry">
                        <mxPoint x="536" y="900" as="sourcePoint"/>
                        <mxPoint x="256" y="830" as="targetPoint"/>
                    </mxGeometry>
                </mxCell>
                <mxCell id="CRWZv03vXLtkCw0N5HkK-45" value="" style="endArrow=classic;startArrow=classic;html=1;rounded=0;entryX=0;entryY=0.5;entryDx=0;entryDy=0;exitX=1.003;exitY=0.304;exitDx=0;exitDy=0;exitPerimeter=0;movable=1;resizable=1;rotatable=1;deletable=1;editable=1;locked=0;connectable=1;" parent="1" source="CRWZv03vXLtkCw0N5HkK-44" target="CRWZv03vXLtkCw0N5HkK-19" edge="1">
                    <mxGeometry width="50" height="50" relative="1" as="geometry">
                        <mxPoint x="230" y="655" as="sourcePoint"/>
                        <mxPoint x="-110" y="350" as="targetPoint"/>
                    </mxGeometry>
                </mxCell>
                <mxCell id="CRWZv03vXLtkCw0N5HkK-46" value="" style="group;movable=1;resizable=1;rotatable=1;deletable=1;editable=1;locked=0;connectable=1;" parent="1" vertex="1" connectable="0">
                    <mxGeometry x="48" y="556" width="170" height="140" as="geometry"/>
                </mxCell>
                <mxCell id="CRWZv03vXLtkCw0N5HkK-39" value="" style="whiteSpace=wrap;html=1;shape=mxgraph.basic.cloud_rect;movable=1;resizable=1;rotatable=1;deletable=1;editable=1;locked=0;connectable=1;" parent="CRWZv03vXLtkCw0N5HkK-46" vertex="1">
                    <mxGeometry width="120" height="90" as="geometry"/>
                </mxCell>
                <mxCell id="CRWZv03vXLtkCw0N5HkK-40" value="" style="whiteSpace=wrap;html=1;shape=mxgraph.basic.cloud_rect;movable=1;resizable=1;rotatable=1;deletable=1;editable=1;locked=0;connectable=1;" parent="CRWZv03vXLtkCw0N5HkK-46" vertex="1">
                    <mxGeometry x="10" y="10" width="120" height="90" as="geometry"/>
                </mxCell>
                <mxCell id="CRWZv03vXLtkCw0N5HkK-41" value="" style="whiteSpace=wrap;html=1;shape=mxgraph.basic.cloud_rect;movable=1;resizable=1;rotatable=1;deletable=1;editable=1;locked=0;connectable=1;" parent="CRWZv03vXLtkCw0N5HkK-46" vertex="1">
                    <mxGeometry x="20" y="20" width="120" height="90" as="geometry"/>
                </mxCell>
                <mxCell id="CRWZv03vXLtkCw0N5HkK-42" value="" style="whiteSpace=wrap;html=1;shape=mxgraph.basic.cloud_rect;movable=1;resizable=1;rotatable=1;deletable=1;editable=1;locked=0;connectable=1;" parent="CRWZv03vXLtkCw0N5HkK-46" vertex="1">
                    <mxGeometry x="30" y="30" width="120" height="90" as="geometry"/>
                </mxCell>
                <mxCell id="CRWZv03vXLtkCw0N5HkK-43" value="" style="whiteSpace=wrap;html=1;shape=mxgraph.basic.cloud_rect;movable=1;resizable=1;rotatable=1;deletable=1;editable=1;locked=0;connectable=1;" parent="CRWZv03vXLtkCw0N5HkK-46" vertex="1">
                    <mxGeometry x="40" y="40" width="120" height="90" as="geometry"/>
                </mxCell>
                <mxCell id="CRWZv03vXLtkCw0N5HkK-44" value="&lt;div&gt;https://www.xyz.com&lt;/div&gt;&lt;div&gt;&lt;br&gt;&lt;/div&gt;&lt;div&gt;Web Services&lt;/div&gt;&lt;div&gt;with Bills&lt;/div&gt;&lt;div&gt;to download&lt;/div&gt;" style="whiteSpace=wrap;html=1;shape=mxgraph.basic.cloud_rect;movable=1;resizable=1;rotatable=1;deletable=1;editable=1;locked=0;connectable=1;" parent="CRWZv03vXLtkCw0N5HkK-46" vertex="1">
                    <mxGeometry x="50" y="50" width="120" height="90" as="geometry"/>
                </mxCell>
                <mxCell id="CRWZv03vXLtkCw0N5HkK-50" value="" style="endArrow=none;dashed=1;html=1;dashPattern=1 3;strokeWidth=2;rounded=0;exitX=0.936;exitY=0.567;exitDx=0;exitDy=0;exitPerimeter=0;entryX=0;entryY=0.25;entryDx=0;entryDy=0;movable=1;resizable=1;rotatable=1;deletable=1;editable=1;locked=0;connectable=1;" parent="1" source="CRWZv03vXLtkCw0N5HkK-25" target="GLKqkrCOLmCW1IYTedix-13" edge="1">
                    <mxGeometry width="50" height="50" relative="1" as="geometry">
                        <mxPoint x="330" y="350" as="sourcePoint"/>
                        <mxPoint x="380" y="300" as="targetPoint"/>
                    </mxGeometry>
                </mxCell>
                <mxCell id="CRWZv03vXLtkCw0N5HkK-51" value="" style="endArrow=none;dashed=1;html=1;dashPattern=1 3;strokeWidth=2;rounded=0;exitX=0.936;exitY=0.445;exitDx=0;exitDy=0;exitPerimeter=0;entryX=0;entryY=0.75;entryDx=0;entryDy=0;movable=1;resizable=1;rotatable=1;deletable=1;editable=1;locked=0;connectable=1;" parent="1" source="CRWZv03vXLtkCw0N5HkK-26" target="GLKqkrCOLmCW1IYTedix-13" edge="1">
                    <mxGeometry width="50" height="50" relative="1" as="geometry">
                        <mxPoint x="330" y="390" as="sourcePoint"/>
                        <mxPoint x="380" y="340" as="targetPoint"/>
                    </mxGeometry>
                </mxCell>
                <mxCell id="CRWZv03vXLtkCw0N5HkK-52" value="" style="endArrow=none;dashed=1;html=1;dashPattern=1 3;strokeWidth=2;rounded=0;entryX=0.5;entryY=0;entryDx=0;entryDy=0;exitX=0.5;exitY=1;exitDx=0;exitDy=0;movable=1;resizable=1;rotatable=1;deletable=1;editable=1;locked=0;connectable=1;" parent="1" source="GLKqkrCOLmCW1IYTedix-13" target="GLKqkrCOLmCW1IYTedix-2" edge="1">
                    <mxGeometry width="50" height="50" relative="1" as="geometry">
                        <mxPoint x="520" y="230" as="sourcePoint"/>
                        <mxPoint x="380" y="340" as="targetPoint"/>
                    </mxGeometry>
                </mxCell>
                <mxCell id="CRWZv03vXLtkCw0N5HkK-59" value="cron" style="image;aspect=fixed;html=1;points=[];align=center;fontSize=12;image=img/lib/azure2/management_governance/Scheduler_Job_Collections.svg;movable=1;resizable=1;rotatable=1;deletable=1;editable=1;locked=0;connectable=1;" parent="1" vertex="1">
                    <mxGeometry x="790" y="529" width="68" height="64" as="geometry"/>
                </mxCell>
                <mxCell id="CRWZv03vXLtkCw0N5HkK-63" value="&lt;div&gt;&lt;span style=&quot;font-size: 14px; background-color: transparent;&quot;&gt;Docker Environment&lt;/span&gt;&lt;br&gt;&lt;/div&gt;" style="whiteSpace=wrap;html=1;movable=1;resizable=1;rotatable=1;deletable=1;editable=1;locked=0;connectable=1;" parent="1" vertex="1">
                    <mxGeometry x="720" y="160" width="170" height="40" as="geometry"/>
                </mxCell>
            </root>
        </mxGraphModel>
    </diagram>
</mxfile>